<?xml version="1.0" standalone="no"?>
<!DOCTYPE svg PUBLIC "-//W3C//DTD SVG 1.1//EN" "http://www.w3.org/Graphics/SVG/1.1/DTD/svg11.dtd">
<svg t="1695109436643" class="icon" viewBox="0 0 1024 1024" version="1.1"
    xmlns="http://www.w3.org/2000/svg" p-id="3979"
    xmlns:xlink="http://www.w3.org/1999/xlink" width="64" height="64">
    <path d="M512 768c-47.392 0-91.664-13.184-129.776-35.712l-46.608 46.608A318.448 318.448 0 0 0 512 832c176.736 0 320-143.264 320-320h-64c0 141.152-114.848 256-256 256zM512 192c-176.736 0-320 143.264-320 320h64c0-141.152 114.848-256 256-256 47.392 0 91.664 13.184 129.776 35.712l46.608-46.608A318.448 318.448 0 0 0 512 192zM704 512h192l-96-128zM320 512H128l96 128z" fill="#999" p-id="3980" data-spm-anchor-id="a313x.search_index.0.i0.3bb43a814YsyM6" class=""></path>
</svg>