<?xml version="1.0" standalone="no"?><!DOCTYPE svg PUBLIC "-//W3C//DTD SVG 1.1//EN" "http://www.w3.org/Graphics/SVG/1.1/DTD/svg11.dtd"><svg t="1695111079027" class="icon" viewBox="0 0 1029 1024" version="1.1" xmlns="http://www.w3.org/2000/svg" p-id="32920" xmlns:xlink="http://www.w3.org/1999/xlink" width="64.3125" height="64"><path d="M512.721518 312.583631c25.752629 0.333008 50.617236 5.32813 74.482818 14.652358 15.98439 6.216152 23.643577 22.53355 17.871436 37.851924-5.772141 15.540379-22.422547 22.977561-38.850949 16.650407-77.479892-30.192737-160.620921 8.880217-189.592629 82.142005-34.854851 88.136152 22.977561 186.595556 116.663848 198.694851 82.586016 10.65626 157.179837-48.841192 164.839024-131.649214 2.109051-23.088564-1.443035-45.400108-9.768238-67.15664-5.994146-15.762385 0.555014-31.635772 15.207371-38.07393 15.318374-6.660163 32.412791 0.333008 38.961951 16.317398 12.987317 32.079783 18.093442 65.491599 13.09832 99.791436-12.321301 83.918049-58.609431 141.750461-138.531382 169.501138-119.549919 41.515014-248.424065-38.295935-266.739512-163.506992-16.539404-112.334743 61.051491-216.788293 172.83122-232.772683C492.963035 313.693659 502.842276 313.36065 512.721518 312.583631L512.721518 312.583631 512.721518 312.583631z" p-id="32921" fill="#707070"></path><path d="M561.340705 1006.350569l-93.908293 0c-49.95122 0-90.689214-40.626992-90.689214-90.689214l0-1.554038 0.222005-1.554038c1.22103-10.989268 1.887046-23.199566 1.776043-30.747751-7.659187-4.1071-20.313496-9.43523-28.638699-11.87729-5.439133 5.32813-13.542331 14.541355-20.202493 22.977561l-0.999024 1.332033-1.22103 1.22103c-35.409864 35.409864-92.909268 35.409864-128.20813 0l-66.379621-66.379621c-35.409864-35.409864-35.409864-92.909268 0-128.20813l0.999024-0.999024 1.110027-0.888022c9.213225-7.548184 18.870461-16.317398 24.531599-21.978537-2.109051-7.992195-6.54916-19.869485-10.212249-27.084661-8.103198-0.222005-21.756531 0.444011-33.744824 1.665041l-1.443035 0.111003-1.443035 0c-49.95122 0-90.689214-40.626992-90.689214-90.689214l0-93.908293c0-49.95122 40.626992-90.689214 90.689214-90.689214l1.22103 0c13.09832 0.555014 28.638699 0.999024 38.406938 0.888022 3.441084-6.882168 7.548184-17.538428 9.546233-24.753604-5.661138-5.883144-16.317398-15.207371-26.19664-22.755556l-1.443035-1.110027-1.332033-1.332033c-35.409864-35.409864-35.409864-92.909268 0-128.20813l66.379621-66.379621c35.409864-35.409864 92.909268-35.409864 128.20813 0l2.109051 2.109051 1.554038 2.44206c6.54916 10.101247 15.98439 21.534526 21.31252 26.085637 7.215176-1.443035 19.869485-6.771165 26.862656-10.878266 0.222005-8.214201-0.777019-23.310569-2.553062-36.186883l-0.222005-1.887046 0-1.887046c0-49.95122 40.626992-90.689214 90.689214-90.689214l93.908293 0c49.95122 0 90.689214 40.626992 90.689214 90.689214l0 1.22103-0.111003 1.22103c-1.22103 13.542331-1.887046 28.194688-1.776043 37.296911 7.104173 3.663089 17.982439 8.214201 25.197615 10.434255 5.994146-5.772141 15.540379-16.761409 23.199566-26.862656l1.110027-1.554038 1.332033-1.332033c35.409864-35.409864 92.909268-35.409864 128.20813 0l66.379621 66.379621c35.409864 35.409864 35.409864 92.909268 0 128.20813l-1.110027 1.110027-1.332033 0.999024c-10.323252 8.214201-21.201518 17.982439-26.862656 23.865583 1.998049 7.437182 6.771165 18.759458 10.545257 25.086612 8.103198 0.333008 22.977561-0.444011 35.853875-1.998049l1.665041-0.222005 1.665041 0c49.95122 0 90.689214 40.626992 90.689214 90.689214l0 93.908293c0 49.95122-40.626992 90.689214-90.689214 90.689214l-1.776043 0-1.776043-0.222005c-11.87729-1.554038-25.863631-2.331057-33.522818-1.998049-3.996098 7.326179-8.880217 21.645528-10.323252 29.970732 4.440108 4.662114 13.875339 12.210298 22.200542 17.427425l2.664065 1.665041 2.220054 2.220054c35.409864 35.409864 35.409864 92.909268 0 128.20813l-66.379621 66.379621c-35.409864 35.409864-92.909268 35.409864-128.20813 0l-0.999024-0.999024-0.888022-1.110027c-6.993171-8.547209-15.096369-17.538428-20.646504-22.977561-8.547209 2.775068-21.090515 8.103198-28.749702 12.099295 0 7.548184 0.777019 19.536477 1.998049 29.859729l0.222005 1.665041 0 1.665041C652.029919 965.612575 611.291924 1006.350569 561.340705 1006.350569zM432.244553 916.882385c0.666016 18.759458 16.206396 33.855827 35.187859 33.855827l93.908293 0c18.870461 0 34.41084-14.985366 35.187859-33.744824-5.661138-48.286179 1.110027-59.497453 3.996098-64.381572 2.664065-4.551111 8.325203-13.986341 42.736043-28.305691 34.965854-14.541355 45.289106-11.544282 50.728238-9.879241 5.217127 1.554038 16.206396 4.884119 47.176152 42.403035 13.764336 12.876314 35.520867 12.654309 48.952195-0.777019l66.379621-66.379621c13.09832-13.09832 13.653333-34.077832 1.665041-47.953171-3.774092-2.553062-10.434255-7.104173-17.20542-12.543306-18.759458-15.318374-27.528672-28.527696-28.305691-42.958049-0.888022-16.206396 6.882168-38.51794 9.213225-44.956098 11.544282-30.858753 23.643577-39.183957 31.857778-42.736043 15.096369-6.660163 42.625041-4.995122 63.715556-2.331057 18.648455-0.777019 33.633821-16.206396 33.633821-35.187859l0-93.908293c0-18.981463-14.985366-34.41084-33.744824-35.187859-49.174201 5.661138-62.27252-0.666016-66.601626-2.775068-4.218103-2.109051-17.316423-8.325203-31.080759-41.515014-13.431328-32.301789-9.546233-45.511111-8.214201-49.840217 1.554038-5.106125 5.550136-18.537453 45.955122-50.617236 12.765312-13.764336 12.432304-35.409864-0.999024-48.73019l-66.379621-66.379621c-13.320325-13.320325-34.854851-13.653333-48.619187-1.110027-2.553062 3.330081-8.547209 10.878266-15.318374 18.648455-16.761409 18.981463-27.972683 27.195664-39.849973 29.193713-4.329106 0.777019-15.873388 2.664065-46.621138-10.323252-30.969756-13.09832-36.297886-21.756531-38.961951-25.863631-3.552087-5.772141-8.99122-14.541355-4.218103-71.152737-0.555014-18.870461-16.095393-34.188835-35.187859-34.188835l-93.908293 0c-18.870461 0-34.299837 14.985366-35.187859 33.633821 0.555014 4.218103 1.665041 13.764336 2.331057 24.087588 1.665041 25.419621-0.444011 39.072954-7.548184 48.952195-7.992195 11.211274-24.642602 19.980488-37.185908 25.308618-12.765312 5.439133-31.080759 11.544282-46.177127 9.657236-13.986341-1.776043-27.306667-10.989268-43.069051-30.081734-6.105149-7.326179-11.211274-14.541355-13.875339-18.537453-6.327154-5.550136-14.541355-8.658211-23.199566-8.658211-9.43523 0-18.315447 3.663089-24.864607 10.212249l-66.379621 66.379621c-6.54916 6.54916-10.212249 15.429377-10.212249 24.864607 0 8.99122 3.219079 17.316423 9.213225 23.75458 3.219079 2.553062 10.545257 8.325203 18.093442 14.985366 18.42645 16.317398 26.529648 27.195664 28.638699 38.628943 1.998049 10.767263-1.332033 26.862656-9.768238 47.842168-10.878266 26.64065-21.645528 39.405962-36.186883 42.625041-8.325203 1.887046-28.416694 2.109051-59.719458 0.666016-19.203469 0.333008-34.632846 15.98439-34.632846 35.187859l0 93.908293c0 18.981463 15.096369 34.521843 33.966829 35.187859 3.552087-0.333008 12.099295-1.110027 21.534526-1.554038 25.641626-1.22103 34.965854 1.110027 41.293008 3.663089 8.99122 3.774092 19.980488 11.988293 32.301789 44.512087 12.765312 33.633821 9.546233 45.0671 8.325203 49.396206-1.554038 5.439133-4.773117 16.650407-43.624065 48.619187-6.105149 6.54916-9.43523 14.985366-9.43523 23.976585 0 9.43523 3.663089 18.315447 10.212249 24.864607l66.379621 66.379621c13.431328 13.431328 34.965854 13.764336 48.73019 0.999024 29.859729-37.629919 42.847046-41.293008 47.731165-42.736043 4.884119-1.443035 16.539404-4.662114 50.950244 9.768238 34.965854 14.652358 40.293984 25.086612 42.958049 30.081734C431.356531 858.494959 437.239675 870.039241 432.244553 916.882385z" p-id="32922" fill="#707070"></path></svg>