<?xml version="1.0" standalone="no"?><!DOCTYPE svg PUBLIC "-//W3C//DTD SVG 1.1//EN" "http://www.w3.org/Graphics/SVG/1.1/DTD/svg11.dtd"><svg t="1694846350937" class="icon" viewBox="0 0 1024 1024" version="1.1" xmlns="http://www.w3.org/2000/svg" p-id="1734" xmlns:xlink="http://www.w3.org/1999/xlink" width="64" height="64"><path d="M834.844444 802.228148 544.142222 511.525926l290.702222-290.702222c7.395556-7.395556 7.395556-19.437037 0-26.832593-7.395556-7.395556-19.437037-7.395556-26.832593 0L517.30963 484.693333 226.702222 194.085926c-7.395556-7.395556-19.437037-7.395556-26.832593 0-7.395556 7.395556-7.395556 19.437037 0 26.832593l290.702222 290.702222L199.86963 802.228148c-7.395556 7.395556-7.395556 19.437037 0 26.832593s19.437037 7.395556 26.832593 0l290.702222-290.702222 290.702222 290.702222c7.395556 7.395556 19.437037 7.395556 26.832593 0C842.24 821.57037 842.24 809.623704 834.844444 802.228148z" fill="#d81e06" p-id="1735"></path></svg>